<svg xmlns="http://www.w3.org/2000/svg" id="Camada_1" data-name="Camada 1" viewBox="0 0 911 199"><defs><style>      .cls-1 {        fill: #fff;      }    </style></defs><g><path class="cls-1" d="m249.45,97.34l-19.83-19.83-51.41-51.41c-1.37-1.37-3.58-1.37-4.95,0l-17.36,17.36c-1.37,1.37-1.37,3.58,0,4.95l48.94,48.94c1.37,1.37,1.37,3.58,0,4.95l-26.63,26.63c-1.37,1.37-3.58,1.37-4.95,0l-48.94-48.94c-1.37-1.37-3.58-1.37-4.95,0l-17.36,17.36c-1.37,1.37-1.37,3.58,0,4.95l51.41,51.41,19.83,19.83c1.37,1.37,3.58,1.37,4.95,0l19.83-19.83,31.58-31.58,19.83-19.83c1.37-1.37,1.37-3.58,0-4.95Z"></path><path class="cls-1" d="m92.17,102.29c-1.37-1.37-1.37-3.58,0-4.95l26.63-26.63c1.37-1.37,3.58-1.37,4.95,0l48.94,48.94c1.37,1.37,3.58,1.37,4.95,0l17.36-17.36c1.37-1.37,1.37-3.58,0-4.95l-51.41-51.41-19.83-19.83c-1.37-1.37-3.58-1.37-4.95,0l-19.83,19.83-31.58,31.58-19.83,19.83c-1.37,1.37-1.37,3.58,0,4.95l19.83,19.83,51.41,51.41c1.37,1.37,3.58,1.37,4.95,0l17.36-17.36c1.37-1.37,1.37-3.58,0-4.95l-48.94-48.94Z"></path></g><g><path class="cls-1" d="m385.87,54.23h-17.11c-1.04,0-1.83.39-2.22,1.31l-27.3,68.57-27.3-68.57c-.39-.91-1.18-1.31-2.22-1.31h-17.11c-1.18,0-1.96.79-1.96,1.96v87.52c0,1.18.78,1.96,1.96,1.96h14.76c1.18,0,1.96-.78,1.96-1.96v-54.6l21.03,54.99c.39,1.05,1.3,1.57,2.35,1.57h13.06c1.05,0,1.96-.52,2.35-1.57l21.03-54.99v54.6c0,1.18.78,1.96,1.96,1.96h14.76c1.18,0,1.96-.78,1.96-1.96V56.19c0-1.18-.78-1.96-1.96-1.96Z"></path><path class="cls-1" d="m488.99,93.68h-39.44c-1.18,0-1.96.79-1.96,1.96v12.67c0,1.18.78,1.96,1.96,1.96h23.25c-.39,10.32-8.89,18.81-23.25,18.81-16.99,0-29.13-12.15-29.13-28.74s12.15-28.87,28.22-28.87c8.09,0,14.63,3,20.11,7.58.91.78,1.96.78,2.88-.26l8.75-9.27c1.05-1.31,1.05-2.35,0-3.4-7.97-8.09-18.68-12.93-31.87-12.93-25.99,0-47.02,20.38-47.02,47.15s21.03,47.02,47.41,47.02,42.06-19.33,42.06-43.23v-8.49c0-1.18-.79-1.96-1.96-1.96Z"></path><path class="cls-1" d="m619.15,54.23h-8.49c-1.05,0-1.7.39-2.09,1.31l-33.44,79.42-33.44-79.42c-.39-.91-1.05-1.31-2.09-1.31h-8.49c-1.18,0-1.83.65-1.83,1.83v87.78c0,1.18.65,1.83,1.83,1.83h6.14c1.18,0,1.83-.65,1.83-1.83v-73.01l30.56,73.41c.39,1.04,1.18,1.44,2.22,1.44h6.53c1.04,0,1.83-.39,2.22-1.44l30.57-73.41v73.01c0,1.18.65,1.83,1.83,1.83h6.14c1.18,0,1.83-.65,1.83-1.83V56.06c0-1.18-.65-1.83-1.83-1.83Z"></path><path class="cls-1" d="m664.53,80.1c-19.07,0-32.13,14.5-32.13,33.31s12.93,33.83,33.83,33.83c8.89,0,17.11-2.74,22.86-8.23.91-.91,1.44-1.56.52-2.74l-2.22-3c-.53-.65-1.31-.65-1.96-.13-4.96,3.79-10.58,6.14-18.42,6.14-15.54,0-24.16-9.53-25.47-22.2h48.2c3.79,0,4.7-1.96,4.7-6.66,0-15.67-10.97-30.3-29.91-30.3Zm-22.99,29.65c1.31-13.06,10.19-21.29,22.86-21.29s21.17,8.62,21.69,21.29h-44.54Z"></path><path class="cls-1" d="m764.89,52.27h-6.01c-1.18,0-1.7.65-1.7,1.83v39.71c-4.7-8.36-13.19-13.71-24.42-13.71-18.68,0-31.48,14.5-31.48,33.57s12.8,33.57,31.48,33.57c11.5,0,19.86-5.23,24.56-13.85l.26,10.45c0,1.18.52,1.83,1.7,1.83h5.62c1.18,0,1.7-.65,1.7-1.83V54.1c0-1.18-.52-1.83-1.7-1.83Zm-30.83,86.21c-13.71,0-23.64-9.93-23.64-24.82s9.93-24.82,23.64-24.82,23.25,10.19,23.25,25.08-9.53,24.56-23.25,24.56Z"></path><path class="cls-1" d="m784.52,53.19c-3.27,0-5.88,2.61-5.88,6.01s2.61,5.88,5.88,5.88,5.88-2.61,5.88-5.88-2.61-6.01-5.88-6.01Z"></path><path class="cls-1" d="m787.53,81.66h-6.01c-1.18,0-1.7.65-1.7,1.83v60.35c0,1.18.52,1.83,1.7,1.83h6.01c1.18,0,1.7-.65,1.7-1.83v-60.35c0-1.18-.52-1.83-1.7-1.83Z"></path><path class="cls-1" d="m862.77,81.66h-5.62c-1.18,0-1.7.65-1.7,1.83l-.26,10.71c-4.7-8.49-13.06-14.1-24.56-14.1-18.68,0-31.48,14.5-31.48,33.57s12.8,33.57,31.48,33.57c11.5,0,19.86-5.23,24.56-13.85l.26,10.45c0,1.18.52,1.83,1.7,1.83h5.62c1.18,0,1.7-.65,1.7-1.83v-60.35c0-1.18-.52-1.83-1.7-1.83Zm-30.83,56.82c-13.71,0-23.64-9.93-23.64-24.82s9.93-24.82,23.64-24.82,23.25,10.19,23.25,25.08-9.53,24.56-23.25,24.56Z"></path></g></svg>